<?xml version="1.0" encoding="UTF-8" standalone="no"?>
<!-- Created with Inkscape (http://www.inkscape.org/) -->

<svg
   xmlns:dc="http://purl.org/dc/elements/1.1/"
   xmlns:cc="http://creativecommons.org/ns#"
   xmlns:rdf="http://www.w3.org/1999/02/22-rdf-syntax-ns#"
   xmlns:svg="http://www.w3.org/2000/svg"
   xmlns="http://www.w3.org/2000/svg"
   xmlns:sodipodi="http://sodipodi.sourceforge.net/DTD/sodipodi-0.dtd"
   xmlns:inkscape="http://www.inkscape.org/namespaces/inkscape"
   width="300.125"
   height="142.28125"
   id="svg2"
   version="1.1"
   inkscape:version="0.48.3.1 r9886"
   sodipodi:docname="foreign_rule.svg">
  <defs
     id="defs4">
    <marker
       inkscape:stockid="Arrow2Lend"
       orient="auto"
       refY="0.0"
       refX="0.0"
       id="Arrow2Lend"
       style="overflow:visible;">
      <path
         id="path6095"
         style="font-size:12.0;fill-rule:evenodd;stroke-width:0.62500000;stroke-linejoin:round;"
         d="M 8.7185878,4.0337352 L -2.2072895,0.016013256 L 8.7185884,-4.0017078 C 6.9730900,-1.6296469 6.9831476,1.6157441 8.7185878,4.0337352 z "
         transform="scale(1.1) rotate(180) translate(1,0)" />
    </marker>
    <marker
       inkscape:stockid="EmptyTriangleOutL"
       orient="auto"
       refY="0"
       refX="0"
       id="EmptyTriangleOutL"
       style="overflow:visible">
      <path
         id="path6235"
         d="m 5.77,0 -8.65,5 0,-10 8.65,5 z"
         style="fill:#ffffff;fill-rule:evenodd;stroke:#000000;stroke-width:1pt;marker-start:none"
         transform="matrix(0.8,0,0,0.8,-4.8,0)"
         inkscape:connector-curvature="0" />
    </marker>
    <marker
       inkscape:stockid="EmptyTriangleOutM"
       orient="auto"
       refY="0"
       refX="0"
       id="EmptyTriangleOutM"
       style="overflow:visible">
      <path
         id="path6238"
         d="m 5.77,0 -8.65,5 0,-10 8.65,5 z"
         style="fill:#ffffff;fill-rule:evenodd;stroke:#000000;stroke-width:1pt;marker-start:none"
         transform="matrix(0.4,0,0,0.4,-1.8,0)"
         inkscape:connector-curvature="0" />
    </marker>
    <marker
       inkscape:stockid="EmptyTriangleOutL"
       orient="auto"
       refY="0"
       refX="0"
       id="EmptyTriangleOutL-6"
       style="overflow:visible">
      <path
         id="path6235-1"
         d="m 5.77,0 -8.65,5 0,-10 8.65,5 z"
         style="fill:#ffffff;fill-rule:evenodd;stroke:#000000;stroke-width:1pt;marker-start:none"
         transform="matrix(0.8,0,0,0.8,-4.8,0)"
         inkscape:connector-curvature="0" />
    </marker>
  </defs>
  <sodipodi:namedview
     id="base"
     pagecolor="#ffffff"
     bordercolor="#666666"
     borderopacity="1.0"
     inkscape:pageopacity="0.0"
     inkscape:pageshadow="2"
     inkscape:zoom="3.959798"
     inkscape:cx="94.969035"
     inkscape:cy="98.236259"
     inkscape:document-units="px"
     inkscape:current-layer="layer1"
     showgrid="true"
     units="cm"
     showguides="true"
     inkscape:guide-bbox="true"
     inkscape:window-width="1855"
     inkscape:window-height="1056"
     inkscape:window-x="65"
     inkscape:window-y="24"
     inkscape:window-maximized="1"
     fit-margin-top="0"
     fit-margin-left="0"
     fit-margin-right="0"
     fit-margin-bottom="0">
    <inkscape:grid
       type="xygrid"
       id="grid3032"
       empspacing="10"
       visible="true"
       enabled="true"
       snapvisiblegridlinesonly="true"
       units="cm"
       spacingx="0.01cm"
       spacingy="0.01cm"
       color="#9191ff"
       opacity="0.1254902" />
  </sodipodi:namedview>
  <metadata
     id="metadata7">
    <rdf:RDF>
      <cc:Work
         rdf:about="">
        <dc:format>image/svg+xml</dc:format>
        <dc:type
           rdf:resource="http://purl.org/dc/dcmitype/StillImage" />
        <dc:title></dc:title>
      </cc:Work>
    </rdf:RDF>
  </metadata>
  <g
     inkscape:label="Layer 1"
     inkscape:groupmode="layer"
     id="layer1"
     transform="translate(-6.78125,-917.40625)">
    <rect
       style="color:#000000;fill:#ffffff;fill-opacity:1;fill-rule:nonzero;stroke:#000000;stroke-width:0.63749999;stroke-linecap:butt;stroke-linejoin:miter;stroke-miterlimit:4;stroke-opacity:1;stroke-dasharray:none;stroke-dashoffset:0;marker:none;visibility:visible;display:inline;overflow:visible;enable-background:accumulate"
       id="rect3026-8-8-5-8-9"
       width="81.496063"
       height="49.587559"
       x="7.0866141"
       y="917.71521"
       ry="3.5433085" />
    <path
       style="fill:none;stroke:#000000;stroke-width:0.625;stroke-linecap:butt;stroke-linejoin:miter;stroke-miterlimit:4;stroke-opacity:1;stroke-dasharray:none"
       d="m 7.0866142,935.43174 81.4960628,0"
       id="path5612"
       inkscape:connector-curvature="0"
       sodipodi:nodetypes="cc" />
    <text
       xml:space="preserve"
       style="font-size:7px;font-style:normal;font-variant:normal;font-weight:normal;font-stretch:normal;text-align:start;line-height:125%;letter-spacing:0px;word-spacing:0px;writing-mode:lr-tb;text-anchor:start;fill:#000000;fill-opacity:1;stroke:none;font-family:Bitstream Vera Sans Mono;-inkscape-font-specification:Bitstream Vera Sans Mono"
       x="12.523961"
       y="945.91223"
       id="text5614"
       sodipodi:linespacing="125%"><tspan
         sodipodi:role="line"
         id="tspan5616"
         x="12.523961"
         y="945.91223">[[Prototype]]</tspan></text>
    <path
       style="fill:none;stroke:#000000;stroke-width:0.625;stroke-linecap:butt;stroke-linejoin:miter;stroke-miterlimit:4;stroke-opacity:1;stroke-dasharray:none"
       d="m 7.0866142,936.62812 81.4960628,0"
       id="path5612-9"
       inkscape:connector-curvature="0"
       sodipodi:nodetypes="cc" />
    <path
       style="fill:none;stroke:#000000;stroke-width:0.625;stroke-linecap:butt;stroke-linejoin:miter;stroke-miterlimit:4;stroke-opacity:1;stroke-dasharray:none"
       d="m 7.0866142,951.33398 81.4960628,0"
       id="path5612-9-3"
       inkscape:connector-curvature="0"
       sodipodi:nodetypes="cc" />
    <text
       xml:space="preserve"
       style="font-size:7px;font-style:normal;font-variant:normal;font-weight:normal;font-stretch:normal;text-align:start;line-height:125%;letter-spacing:0px;word-spacing:0px;writing-mode:lr-tb;text-anchor:start;fill:#000000;fill-opacity:1;stroke:none;font-family:Bitstream Vera Sans Mono;-inkscape-font-specification:Bitstream Vera Sans Mono"
       x="12.523961"
       y="960.61804"
       id="text5614-8"
       sodipodi:linespacing="125%"><tspan
         sodipodi:role="line"
         id="tspan5616-2"
         x="12.523961"
         y="960.61804">string</tspan></text>
    <rect
       style="color:#000000;fill:#ffffff;fill-opacity:1;fill-rule:nonzero;stroke:#000000;stroke-width:0.63749999;stroke-linecap:butt;stroke-linejoin:miter;stroke-miterlimit:4;stroke-opacity:1;stroke-dasharray:none;stroke-dashoffset:0;marker:none;visibility:visible;display:inline;overflow:visible;enable-background:accumulate"
       id="rect3026-8-8-5-8-9-5"
       width="81.496063"
       height="65.658989"
       x="116.08661"
       y="917.71521"
       ry="3.5433085" />
    <path
       style="fill:none;stroke:#000000;stroke-width:0.625;stroke-linecap:butt;stroke-linejoin:miter;stroke-miterlimit:4;stroke-opacity:1;stroke-dasharray:none"
       d="m 116.0866,935.43176 81.49607,0"
       id="path5612-2"
       inkscape:connector-curvature="0"
       sodipodi:nodetypes="cc" />
    <text
       xml:space="preserve"
       style="font-size:7px;font-style:normal;font-variant:normal;font-weight:normal;font-stretch:normal;text-align:start;line-height:125%;letter-spacing:0px;word-spacing:0px;writing-mode:lr-tb;text-anchor:start;fill:#000000;fill-opacity:1;stroke:none;font-family:Bitstream Vera Sans Mono;-inkscape-font-specification:Bitstream Vera Sans Mono"
       x="121.52393"
       y="960.60614"
       id="text5614-4"
       sodipodi:linespacing="125%"><tspan
         sodipodi:role="line"
         id="tspan5616-3"
         x="121.52393"
         y="960.60614">string</tspan></text>
    <text
       xml:space="preserve"
       style="font-size:11px;font-style:normal;font-variant:normal;font-weight:bold;font-stretch:normal;text-align:start;line-height:125%;letter-spacing:0px;word-spacing:0px;writing-mode:lr-tb;text-anchor:start;fill:#000000;fill-opacity:1;stroke:none;font-family:Bitstream Vera Serif;-inkscape-font-specification:Bitstream Vera Serif Bold"
       x="123.17323"
       y="929.76245"
       id="text5683-8"
       sodipodi:linespacing="125%"><tspan
         sodipodi:role="line"
         id="tspan5685-9"
         x="123.17323"
         y="929.76245">JavaScript</tspan></text>
    <path
       style="fill:none;stroke:#000000;stroke-width:0.625;stroke-linecap:butt;stroke-linejoin:miter;stroke-miterlimit:4;stroke-opacity:1;stroke-dasharray:none"
       d="m 116.0866,936.62815 81.49607,0"
       id="path5612-9-1"
       inkscape:connector-curvature="0"
       sodipodi:nodetypes="cc" />
    <path
       style="fill:none;stroke:#000000;stroke-width:0.625;stroke-linecap:butt;stroke-linejoin:miter;stroke-miterlimit:4;stroke-opacity:1;stroke-dasharray:none"
       d="m 116.0866,966.06153 81.49607,0"
       id="path5612-9-3-1"
       inkscape:connector-curvature="0"
       sodipodi:nodetypes="cc" />
    <path
       style="fill:none;stroke:#000000;stroke-width:0.625;stroke-linecap:butt;stroke-linejoin:miter;stroke-miterlimit:4;stroke-opacity:1;stroke-dasharray:none;marker-mid:none;marker-end:url(#EmptyTriangleOutL)"
       d="m 88.582677,33.307088 c 12.755903,0 13.513513,-1.417323 13.513513,-9.212599 0,-6.377952 0.63135,-7.795275 13.37882,-7.795275"
       id="path5889"
       inkscape:connector-curvature="0"
       sodipodi:nodetypes="csc"
       transform="translate(0,910.62859)" />
    <rect
       style="color:#000000;fill:#ffffff;fill-opacity:1;fill-rule:nonzero;stroke:#000000;stroke-width:0.63749999;stroke-linecap:butt;stroke-linejoin:miter;stroke-miterlimit:4;stroke-opacity:1;stroke-dasharray:none;stroke-dashoffset:0;marker:none;visibility:visible;display:inline;overflow:visible;enable-background:accumulate"
       id="rect3026-8-8-5-8-9-5-8"
       width="81.496063"
       height="35.565479"
       x="225.08661"
       y="917.71521"
       ry="3.5433085" />
    <path
       style="fill:none;stroke:#000000;stroke-width:0.625;stroke-linecap:butt;stroke-linejoin:miter;stroke-miterlimit:4;stroke-opacity:1;stroke-dasharray:none"
       d="m 225.08662,935.43176 81.49607,0"
       id="path5612-2-9"
       inkscape:connector-curvature="0"
       sodipodi:nodetypes="cc" />
    <text
       xml:space="preserve"
       style="font-size:11px;font-style:normal;font-variant:normal;font-weight:bold;font-stretch:normal;text-align:start;line-height:125%;letter-spacing:0px;word-spacing:0px;writing-mode:lr-tb;text-anchor:start;fill:#000000;fill-opacity:1;stroke:none;font-family:Bitstream Vera Serif;-inkscape-font-specification:Bitstream Vera Serif Bold"
       x="232.17323"
       y="929.76245"
       id="text5683-8-6"
       sodipodi:linespacing="125%"><tspan
         sodipodi:role="line"
         id="tspan5685-9-7"
         x="232.17323"
         y="929.76245">OMeta</tspan></text>
    <path
       style="fill:none;stroke:#000000;stroke-width:0.625;stroke-linecap:butt;stroke-linejoin:miter;stroke-miterlimit:4;stroke-opacity:1;stroke-dasharray:none"
       d="m 225.08662,936.62815 81.49607,0"
       id="path5612-9-1-9"
       inkscape:connector-curvature="0"
       sodipodi:nodetypes="cc" />
    <g
       transform="translate(122,868.42835)"
       style="font-size:11px;font-style:normal;font-variant:normal;font-weight:normal;font-stretch:normal;text-align:start;line-height:125%;letter-spacing:0px;word-spacing:0px;writing-mode:lr-tb;text-anchor:start;fill:#000000;fill-opacity:1;stroke:none;font-family:Bitstream Vera Serif;-inkscape-font-specification:Bitstream Vera Serif"
       id="text5876-2">
      <path
         d="m 138.00092,76.887978 c -1e-5,-0.20052 0.068,-0.370605 0.2041,-0.510254 0.13606,-0.139648 0.30615,-0.209472 0.51025,-0.209473 0.19694,10e-7 0.36523,0.06983 0.50488,0.209473 0.13965,0.139649 0.20947,0.309734 0.20948,0.510254 -1e-5,0.19694 -0.0698,0.365234 -0.20948,0.504882 -0.13965,0.139649 -0.30794,0.209473 -0.50488,0.209473 -0.2041,0 -0.37419,-0.06803 -0.51025,-0.204101 -0.13607,-0.139649 -0.20411,-0.309733 -0.2041,-0.510254"
         id="path5881-5"
         inkscape:connector-curvature="0" />
      <path
         d="m 141.50287,76.887978 c 0,-0.20052 0.068,-0.370605 0.2041,-0.510254 0.13607,-0.139648 0.30615,-0.209472 0.51025,-0.209473 0.19694,10e-7 0.36524,0.06983 0.50489,0.209473 0.13964,0.139649 0.20947,0.309734 0.20947,0.510254 0,0.19694 -0.0698,0.365234 -0.20947,0.504882 -0.13965,0.139649 -0.30795,0.209473 -0.50489,0.209473 -0.2041,0 -0.37418,-0.06803 -0.51025,-0.204101 -0.13607,-0.139649 -0.2041,-0.309733 -0.2041,-0.510254"
         id="path5883-4"
         inkscape:connector-curvature="0" />
      <path
         d="m 145.00482,76.887978 c 0,-0.20052 0.068,-0.370605 0.2041,-0.510254 0.13607,-0.139648 0.30615,-0.209472 0.51026,-0.209473 0.19694,10e-7 0.36523,0.06983 0.50488,0.209473 0.13965,0.139649 0.20947,0.309734 0.20947,0.510254 0,0.19694 -0.0698,0.365234 -0.20947,0.504882 -0.13965,0.139649 -0.30794,0.209473 -0.50488,0.209473 -0.20411,0 -0.37419,-0.06803 -0.51026,-0.204101 -0.13607,-0.139649 -0.2041,-0.309733 -0.2041,-0.510254"
         id="path5885-5"
         inkscape:connector-curvature="0" />
    </g>
    <text
       xml:space="preserve"
       style="font-size:11px;font-style:normal;font-variant:normal;font-weight:bold;font-stretch:normal;text-align:start;line-height:125%;letter-spacing:0px;word-spacing:0px;writing-mode:lr-tb;text-anchor:start;fill:#000000;fill-opacity:1;stroke:none;font-family:Bitstream Vera Serif;-inkscape-font-specification:Bitstream Vera Serif Bold"
       x="14.173228"
       y="929.76245"
       id="text5683"
       sodipodi:linespacing="125%"><tspan
         sodipodi:role="line"
         id="tspan5685"
         x="14.173228"
         y="929.76245">Highlighter</tspan></text>
    <path
       style="fill:none;stroke:#000000;stroke-width:0.625;stroke-linecap:butt;stroke-linejoin:miter;stroke-miterlimit:4;stroke-opacity:1;stroke-dasharray:none;marker-mid:none;marker-end:url(#EmptyTriangleOutL)"
       d="m 197.50947,943.93567 c 12.7559,0 13.51351,-1.41732 13.51351,-9.2126 0,-6.37795 0.63135,-7.79527 13.37882,-7.79527"
       id="path5889-2"
       inkscape:connector-curvature="0"
       sodipodi:nodetypes="csc" />
    <text
       xml:space="preserve"
       style="font-size:7px;font-style:normal;font-variant:normal;font-weight:normal;font-stretch:normal;text-align:start;line-height:125%;letter-spacing:0px;word-spacing:0px;writing-mode:lr-tb;text-anchor:start;fill:#000000;fill-opacity:1;stroke:none;font-family:Bitstream Vera Sans Mono;-inkscape-font-specification:Bitstream Vera Sans Mono"
       x="121.26128"
       y="945.90826"
       id="text5614-3"
       sodipodi:linespacing="125%"><tspan
         sodipodi:role="line"
         id="tspan5616-30"
         x="121.26128"
         y="945.90826">[[Prototype]]</tspan></text>
    <path
       style="fill:none;stroke:#000000;stroke-width:0.625;stroke-linecap:butt;stroke-linejoin:miter;stroke-miterlimit:4;stroke-opacity:1;stroke-dasharray:none"
       d="m 115.82391,951.34484 81.49607,0"
       id="path5612-9-3-11"
       inkscape:connector-curvature="0"
       sodipodi:nodetypes="cc" />
    <g
       transform="translate(14.61741,898.41482)"
       style="font-size:11px;font-style:normal;font-variant:normal;font-weight:normal;font-stretch:normal;text-align:start;line-height:125%;letter-spacing:0px;word-spacing:0px;writing-mode:lr-tb;text-anchor:start;fill:#000000;fill-opacity:1;stroke:none;font-family:Bitstream Vera Serif;-inkscape-font-specification:Bitstream Vera Serif"
       id="text5876-2-9">
      <path
         d="m 138.00092,76.887978 c -1e-5,-0.20052 0.068,-0.370605 0.2041,-0.510254 0.13606,-0.139648 0.30615,-0.209472 0.51025,-0.209473 0.19694,10e-7 0.36523,0.06983 0.50488,0.209473 0.13965,0.139649 0.20947,0.309734 0.20948,0.510254 -1e-5,0.19694 -0.0698,0.365234 -0.20948,0.504882 -0.13965,0.139649 -0.30794,0.209473 -0.50488,0.209473 -0.2041,0 -0.37419,-0.06803 -0.51025,-0.204101 -0.13607,-0.139649 -0.20411,-0.309733 -0.2041,-0.510254"
         id="path5881-5-1"
         inkscape:connector-curvature="0" />
      <path
         d="m 141.50287,76.887978 c 0,-0.20052 0.068,-0.370605 0.2041,-0.510254 0.13607,-0.139648 0.30615,-0.209472 0.51025,-0.209473 0.19694,10e-7 0.36524,0.06983 0.50489,0.209473 0.13964,0.139649 0.20947,0.309734 0.20947,0.510254 0,0.19694 -0.0698,0.365234 -0.20947,0.504882 -0.13965,0.139649 -0.30795,0.209473 -0.50489,0.209473 -0.2041,0 -0.37418,-0.06803 -0.51025,-0.204101 -0.13607,-0.139649 -0.2041,-0.309733 -0.2041,-0.510254"
         id="path5883-4-1"
         inkscape:connector-curvature="0" />
      <path
         d="m 145.00482,76.887978 c 0,-0.20052 0.068,-0.370605 0.2041,-0.510254 0.13607,-0.139648 0.30615,-0.209472 0.51026,-0.209473 0.19694,10e-7 0.36523,0.06983 0.50488,0.209473 0.13965,0.139649 0.20947,0.309734 0.20947,0.510254 0,0.19694 -0.0698,0.365234 -0.20947,0.504882 -0.13965,0.139649 -0.30794,0.209473 -0.50488,0.209473 -0.20411,0 -0.37419,-0.06803 -0.51026,-0.204101 -0.13607,-0.139649 -0.2041,-0.309733 -0.2041,-0.510254"
         id="path5885-5-0"
         inkscape:connector-curvature="0" />
    </g>
    <rect
       style="color:#000000;fill:#ffffff;fill-opacity:1;fill-rule:nonzero;stroke:#000000;stroke-width:0.63749999;stroke-linecap:butt;stroke-linejoin:miter;stroke-miterlimit:4;stroke-opacity:1;stroke-dasharray:none;stroke-dashoffset:0;marker:none;visibility:visible;display:inline;overflow:visible;enable-background:accumulate"
       id="rect3026-8-8-5-8-9-5-85"
       width="81.496063"
       height="65.658989"
       x="116.08662"
       y="993.71521"
       ry="3.5433085" />
    <path
       style="fill:none;stroke:#000000;stroke-width:0.625;stroke-linecap:butt;stroke-linejoin:miter;stroke-miterlimit:4;stroke-opacity:1;stroke-dasharray:none"
       d="m 116.0866,1011.4318 81.49607,0"
       id="path5612-2-2"
       inkscape:connector-curvature="0"
       sodipodi:nodetypes="cc" />
    <text
       xml:space="preserve"
       style="font-size:7px;font-style:normal;font-variant:normal;font-weight:normal;font-stretch:normal;text-align:start;line-height:125%;letter-spacing:0px;word-spacing:0px;writing-mode:lr-tb;text-anchor:start;fill:#000000;fill-opacity:1;stroke:none;font-family:Bitstream Vera Sans Mono;-inkscape-font-specification:Bitstream Vera Sans Mono"
       x="121.52393"
       y="1036.6061"
       id="text5614-4-0"
       sodipodi:linespacing="125%"><tspan
         sodipodi:role="line"
         id="tspan5616-3-1"
         x="121.52393"
         y="1036.6061">statement</tspan></text>
    <text
       xml:space="preserve"
       style="font-size:11px;font-style:normal;font-variant:normal;font-weight:bold;font-stretch:normal;text-align:start;line-height:125%;letter-spacing:0px;word-spacing:0px;writing-mode:lr-tb;text-anchor:start;fill:#000000;fill-opacity:1;stroke:none;font-family:Bitstream Vera Serif;-inkscape-font-specification:Bitstream Vera Serif Bold"
       x="123.17323"
       y="1005.7625"
       id="text5683-8-9"
       sodipodi:linespacing="125%"
       inkscape:export-filename="/home/jonathan/Documents/Uni/Bachelorthesis/writings/ometa-docs/img/foreign_rule.png"
       inkscape:export-xdpi="150"
       inkscape:export-ydpi="150"><tspan
         sodipodi:role="line"
         id="tspan5685-9-3"
         x="123.17323"
         y="1005.7625">SQL</tspan></text>
    <path
       style="fill:none;stroke:#000000;stroke-width:0.625;stroke-linecap:butt;stroke-linejoin:miter;stroke-miterlimit:4;stroke-opacity:1;stroke-dasharray:none"
       d="m 116.0866,1012.6281 81.49607,0"
       id="path5612-9-1-2"
       inkscape:connector-curvature="0"
       sodipodi:nodetypes="cc" />
    <path
       style="fill:none;stroke:#000000;stroke-width:0.625;stroke-linecap:butt;stroke-linejoin:miter;stroke-miterlimit:4;stroke-opacity:1;stroke-dasharray:none"
       d="m 116.0866,1042.0615 81.49607,0"
       id="path5612-9-3-1-1"
       inkscape:connector-curvature="0"
       sodipodi:nodetypes="cc" />
    <text
       xml:space="preserve"
       style="font-size:7px;font-style:normal;font-variant:normal;font-weight:normal;font-stretch:normal;text-align:start;line-height:125%;letter-spacing:0px;word-spacing:0px;writing-mode:lr-tb;text-anchor:start;fill:#000000;fill-opacity:1;stroke:none;font-family:Bitstream Vera Sans Mono;-inkscape-font-specification:Bitstream Vera Sans Mono"
       x="121.26128"
       y="1021.9083"
       id="text5614-3-4"
       sodipodi:linespacing="125%"><tspan
         sodipodi:role="line"
         id="tspan5616-30-9"
         x="121.26128"
         y="1021.9083">[[Prototype]]</tspan></text>
    <path
       style="fill:none;stroke:#000000;stroke-width:0.625;stroke-linecap:butt;stroke-linejoin:miter;stroke-miterlimit:4;stroke-opacity:1;stroke-dasharray:none"
       d="m 115.82391,1027.3448 81.49607,0"
       id="path5612-9-3-11-4"
       inkscape:connector-curvature="0"
       sodipodi:nodetypes="cc" />
    <g
       transform="translate(14.617414,974.41482)"
       style="font-size:11px;font-style:normal;font-variant:normal;font-weight:normal;font-stretch:normal;text-align:start;line-height:125%;letter-spacing:0px;word-spacing:0px;writing-mode:lr-tb;text-anchor:start;fill:#000000;fill-opacity:1;stroke:none;font-family:Bitstream Vera Serif;-inkscape-font-specification:Bitstream Vera Serif"
       id="text5876-2-9-7">
      <path
         d="m 138.00092,76.887978 c -1e-5,-0.20052 0.068,-0.370605 0.2041,-0.510254 0.13606,-0.139648 0.30615,-0.209472 0.51025,-0.209473 0.19694,10e-7 0.36523,0.06983 0.50488,0.209473 0.13965,0.139649 0.20947,0.309734 0.20948,0.510254 -1e-5,0.19694 -0.0698,0.365234 -0.20948,0.504882 -0.13965,0.139649 -0.30794,0.209473 -0.50488,0.209473 -0.2041,0 -0.37419,-0.06803 -0.51025,-0.204101 -0.13607,-0.139649 -0.20411,-0.309733 -0.2041,-0.510254"
         id="path5881-5-1-3"
         inkscape:connector-curvature="0" />
      <path
         d="m 141.50287,76.887978 c 0,-0.20052 0.068,-0.370605 0.2041,-0.510254 0.13607,-0.139648 0.30615,-0.209472 0.51025,-0.209473 0.19694,10e-7 0.36524,0.06983 0.50489,0.209473 0.13964,0.139649 0.20947,0.309734 0.20947,0.510254 0,0.19694 -0.0698,0.365234 -0.20947,0.504882 -0.13965,0.139649 -0.30795,0.209473 -0.50489,0.209473 -0.2041,0 -0.37418,-0.06803 -0.51025,-0.204101 -0.13607,-0.139649 -0.2041,-0.309733 -0.2041,-0.510254"
         id="path5883-4-1-0"
         inkscape:connector-curvature="0" />
      <path
         d="m 145.00482,76.887978 c 0,-0.20052 0.068,-0.370605 0.2041,-0.510254 0.13607,-0.139648 0.30615,-0.209472 0.51026,-0.209473 0.19694,10e-7 0.36523,0.06983 0.50488,0.209473 0.13965,0.139649 0.20947,0.309734 0.20947,0.510254 0,0.19694 -0.0698,0.365234 -0.20947,0.504882 -0.13965,0.139649 -0.30794,0.209473 -0.50488,0.209473 -0.20411,0 -0.37419,-0.06803 -0.51026,-0.204101 -0.13607,-0.139649 -0.2041,-0.309733 -0.2041,-0.510254"
         id="path5885-5-0-5"
         inkscape:connector-curvature="0" />
    </g>
    <path
       style="fill:none;stroke:#000000;stroke-width:0.625;stroke-linecap:butt;stroke-linejoin:miter;stroke-miterlimit:4;stroke-opacity:1;stroke-dasharray:0.625, 1.25;stroke-dashoffset:0;marker-end:url(#Arrow2Lend)"
       d="m 81.850394,41.296998 c 10.27559,0 13.818897,1.417323 13.818897,8.858268 0,7.440945 0,52.440954 0,60.236224 0,7.79528 8.030519,6.69594 12.405459,6.58153"
       id="path7197"
       inkscape:connector-curvature="0"
       transform="translate(6.78125,917.40625)"
       sodipodi:nodetypes="cssc" />
    <path
       style="fill:none;stroke:#000000;stroke-width:0.625;stroke-linecap:butt;stroke-linejoin:miter;stroke-miterlimit:4;stroke-opacity:1;stroke-dasharray:none"
       d="m 190.98425,102.59621 c 7.08662,0 13.11024,0 13.11024,-10.629921 0,-10.629921 0.14509,-70.15748 0.14509,-73.700787"
       id="path7436"
       inkscape:connector-curvature="0"
       transform="translate(6.78125,917.40625)"
       sodipodi:nodetypes="csc" />
    <g
       transform="matrix(0,1,-1,0,0,0)"
       style="font-size:7px;font-style:normal;font-variant:normal;font-weight:normal;font-stretch:normal;text-align:start;line-height:125%;letter-spacing:0px;word-spacing:0px;writing-mode:lr-tb;text-anchor:start;fill:#000000;fill-opacity:1;stroke:none;font-family:Bitstream Vera Serif;-inkscape-font-specification:Bitstream Vera Serif"
       id="text7389">
      <path
         d="m 969.25568,-107.63657 -0.23682,0 c -0.002,-0.12207 -0.0366,-0.21484 -0.10498,-0.27832 -0.0667,-0.0635 -0.16439,-0.0952 -0.29297,-0.0952 -0.16764,0 -0.28565,0.0464 -0.354,0.13916 -0.0684,0.0911 -0.10254,0.25472 -0.10254,0.49072 l 0,0.33448 0.7251,0 0,0.26123 -0.7251,0 0,2.07519 0.57617,0 0,0.25879 -1.45508,0 0,-0.25879 0.42969,0 0,-2.07519 -0.42969,0 0,-0.26123 0.42969,0 0,-0.32471 c 0,-0.28971 0.0749,-0.50862 0.22461,-0.65674 0.15136,-0.14811 0.37272,-0.22216 0.66406,-0.22217 0.10905,1e-5 0.2181,0.01 0.32715,0.0293 0.10905,0.0195 0.21728,0.0497 0.32471,0.0903 l 0,0.49317"
         style="font-size:5px"
         id="path7515" />
      <path
         d="m 970.46417,-104.62144 c 0.24089,0 0.42236,-0.0952 0.54444,-0.28564 0.12369,-0.19043 0.18554,-0.47119 0.18554,-0.84229 0,-0.37109 -0.0619,-0.65104 -0.18554,-0.83984 -0.12208,-0.19043 -0.30355,-0.28564 -0.54444,-0.28565 -0.24088,1e-5 -0.42318,0.0952 -0.54687,0.28565 -0.12207,0.1888 -0.18311,0.46875 -0.18311,0.83984 0,0.3711 0.0618,0.65186 0.18555,0.84229 0.1237,0.19043 0.30517,0.28564 0.54443,0.28564 m 0,0.2417 c -0.3776,0 -0.68115,-0.12451 -0.91064,-0.37353 -0.22949,-0.25065 -0.34424,-0.58268 -0.34424,-0.9961 0,-0.41341 0.11393,-0.74462 0.3418,-0.99365 0.22949,-0.24902 0.53385,-0.37353 0.91308,-0.37353 0.37923,0 0.68278,0.12451 0.91065,0.37353 0.22949,0.24903 0.34423,0.58024 0.34424,0.99365 -10e-6,0.41342 -0.11475,0.74545 -0.34424,0.9961 -0.22787,0.24902 -0.53142,0.37353 -0.91065,0.37353"
         style="font-size:5px"
         id="path7517" />
      <path
         d="m 974.35822,-107.05064 0,0.64942 -0.25879,0 c -0.008,-0.12858 -0.0439,-0.22461 -0.10743,-0.28809 -0.0635,-0.0635 -0.15625,-0.0952 -0.27832,-0.0952 -0.22135,0 -0.39144,0.0765 -0.51025,0.22949 -0.11719,0.153 -0.17578,0.37272 -0.17578,0.65918 l 0,1.18652 0.52002,0 0,0.25879 -1.37451,0 0,-0.25879 0.40527,0 0,-2.08008 -0.42969,0 0,-0.25634 0.87891,0 0,0.46142 c 0.0879,-0.18066 0.20101,-0.31412 0.33935,-0.40039 0.13835,-0.0879 0.30681,-0.13183 0.50538,-0.13183 0.0732,0 0.14973,0.006 0.22949,0.0171 0.0814,0.0114 0.16682,0.0277 0.25635,0.0488"
         style="font-size:5px"
         id="path7519" />
      <path
         d="m 977.07062,-105.70054 -1.93604,0 0,0.0195 c 0,0.34994 0.0659,0.61442 0.19776,0.79346 0.13183,0.17741 0.32633,0.26611 0.58349,0.26611 0.19694,0 0.35807,-0.0513 0.4834,-0.15381 0.12695,-0.10416 0.21566,-0.25797 0.26611,-0.46142 l 0.36133,0 c -0.0716,0.28483 -0.20426,0.49886 -0.39795,0.64209 -0.19206,0.14323 -0.44515,0.21484 -0.75927,0.21484 -0.37924,0 -0.68441,-0.12451 -0.91553,-0.37353 -0.22949,-0.25065 -0.34424,-0.58268 -0.34424,-0.9961 0,-0.41015 0.11312,-0.74055 0.33936,-0.99121 0.22623,-0.25065 0.52327,-0.37597 0.89111,-0.37597 0.39225,0 0.69336,0.12125 0.90332,0.36377 0.20996,0.24088 0.31901,0.59163 0.32715,1.05224 m -0.52979,-0.25879 c -0.01,-0.30273 -0.0741,-0.53059 -0.19287,-0.68359 -0.11719,-0.15462 -0.28646,-0.23193 -0.50781,-0.23194 -0.20671,1e-5 -0.36947,0.0773 -0.48828,0.23194 -0.11882,0.15462 -0.19125,0.38249 -0.21729,0.68359 l 1.40625,0"
         style="font-size:5px"
         id="path7521" />
      <path
         d="m 977.80548,-107.85142 c 0,-0.0749 0.0269,-0.13997 0.0806,-0.19531 0.0553,-0.0553 0.12125,-0.083 0.19775,-0.083 0.0749,1e-5 0.13916,0.0277 0.19287,0.083 0.0553,0.0553 0.083,0.12045 0.083,0.19531 0,0.0765 -0.0269,0.14161 -0.0806,0.19531 -0.0537,0.0537 -0.11881,0.0806 -0.19531,0.0806 -0.0765,0 -0.14241,-0.0268 -0.19775,-0.0806 -0.0537,-0.0537 -0.0806,-0.11881 -0.0806,-0.19531 m 0.57373,3.14209 0.42481,0 0,0.25879 -1.30371,0 0,-0.25879 0.42968,0 0,-2.07519 -0.42968,0 0,-0.26123 0.8789,0 0,2.33642"
         style="font-size:5px"
         id="path7523" />
      <path
         d="m 981.54572,-106.78452 0,2.27783 c -10e-6,0.37272 -0.10255,0.65999 -0.30762,0.86182 -0.20508,0.20344 -0.49724,0.30517 -0.87647,0.30517 -0.1709,0 -0.33447,-0.0155 -0.49072,-0.0464 -0.15625,-0.0309 -0.30599,-0.0773 -0.44922,-0.13916 l 0,-0.54443 0.23438,0 c 0.0293,0.16927 0.0985,0.29297 0.20752,0.37109 0.10904,0.0781 0.26529,0.11719 0.46875,0.11719 0.26367,0 0.45654,-0.0749 0.57861,-0.22461 0.1237,-0.14811 0.18554,-0.38167 0.18555,-0.70068 l 0,-0.34912 c -0.0879,0.16276 -0.2002,0.2832 -0.33692,0.36133 -0.13509,0.0765 -0.30273,0.11474 -0.50293,0.11474 -0.31901,0 -0.58024,-0.12614 -0.78369,-0.37842 -0.20182,-0.2539 -0.30273,-0.5843 -0.30273,-0.99121 0,-0.4069 0.10091,-0.73649 0.30273,-0.98877 0.20182,-0.25227 0.46305,-0.37841 0.78369,-0.37841 0.2002,0 0.36784,0.0391 0.50293,0.11718 0.13672,0.0765 0.24902,0.19613 0.33692,0.35889 l 0,-0.40527 0.8789,0 0,0.26123 -0.42968,0 m -0.44922,0.9082 c -10e-6,-0.31087 -0.0602,-0.5485 -0.18067,-0.71289 -0.11881,-0.16439 -0.29215,-0.24658 -0.52002,-0.24658 -0.23112,0 -0.40609,0.0911 -0.5249,0.27343 -0.11719,0.1823 -0.17578,0.45329 -0.17578,0.81299 0,0.35808 0.0586,0.62907 0.17578,0.81299 0.11881,0.18392 0.29378,0.27588 0.5249,0.27588 0.22787,0 0.40121,-0.0814 0.52002,-0.24414 0.12044,-0.16439 0.18066,-0.40283 0.18067,-0.71533 l 0,-0.25635"
         style="font-size:5px"
         id="path7525" />
      <path
         d="m 982.32941,-104.45054 0,-0.25879 0.40527,0 0,-2.07519 -0.42969,0 0,-0.26123 0.87891,0 0,0.46142 c 0.083,-0.17578 0.19043,-0.30843 0.32226,-0.39795 0.13347,-0.0895 0.28809,-0.13427 0.46387,-0.13427 0.28646,0 0.49723,0.0822 0.63233,0.24658 0.13508,0.16439 0.20263,0.42074 0.20263,0.76904 l 0,1.3916 0.40039,0 0,0.25879 -1.24023,0 0,-0.25879 0.38818,0 0,-1.25 c 0,-0.31738 -0.0391,-0.53466 -0.11718,-0.65185 -0.0781,-0.11882 -0.21566,-0.17822 -0.4126,-0.17823 -0.20834,1e-5 -0.36703,0.0765 -0.47608,0.2295 -0.10905,0.15137 -0.16357,0.37272 -0.16357,0.66406 l 0,1.18652 0.39062,0 0,0.25879 -1.24511,0"
         style="font-size:5px"
         id="path7527" />
      <path
         d="m 989.32892,-107.05064 0,0.64942 -0.25879,0 c -0.008,-0.12858 -0.0439,-0.22461 -0.10742,-0.28809 -0.0635,-0.0635 -0.15625,-0.0952 -0.27832,-0.0952 -0.22136,0 -0.39144,0.0765 -0.51026,0.22949 -0.11719,0.153 -0.17578,0.37272 -0.17578,0.65918 l 0,1.18652 0.52002,0 0,0.25879 -1.37451,0 0,-0.25879 0.40527,0 0,-2.08008 -0.42968,0 0,-0.25634 0.8789,0 0,0.46142 c 0.0879,-0.18066 0.20101,-0.31412 0.33936,-0.40039 0.13834,-0.0879 0.3068,-0.13183 0.50537,-0.13183 0.0732,0 0.14974,0.006 0.22949,0.0171 0.0814,0.0114 0.16683,0.0277 0.25635,0.0488"
         style="font-size:5px"
         id="path7529" />
      <path
         d="m 991.10138,-107.04575 0.83984,0 0,2.33642 0.42481,0 0,0.25879 -0.87403,0 0,-0.45898 c -0.083,0.17252 -0.19043,0.30436 -0.32226,0.3955 -0.13184,0.0895 -0.28483,0.13428 -0.45899,0.13428 -0.28808,0 -0.50048,-0.0814 -0.6372,-0.24414 -0.13509,-0.16439 -0.20264,-0.42155 -0.20264,-0.77148 l 0,-1.38916 -0.40527,0 0,-0.26123 0.85693,0 0,1.51123 c 0,0.31575 0.0382,0.53222 0.11475,0.64941 0.0781,0.11719 0.21647,0.17578 0.41504,0.17578 0.20833,0 0.36702,-0.0765 0.47607,-0.22949 0.10905,-0.15299 0.16357,-0.37516 0.16357,-0.6665 l 0,-1.1792 -0.39062,0 0,-0.26123"
         style="font-size:5px"
         id="path7531" />
      <path
         d="m 993.57941,-104.70933 0.4248,0 0,0.25879 -1.30615,0 0,-0.25879 0.43213,0 0,-3.28125 -0.43213,0 0,-0.25879 0.88135,0 0,3.54004"
         style="font-size:5px"
         id="path7533" />
      <path
         d="m 996.86554,-105.70054 -1.93604,0 0,0.0195 c 0,0.34994 0.0659,0.61442 0.19776,0.79346 0.13183,0.17741 0.32633,0.26611 0.58349,0.26611 0.19694,0 0.35808,-0.0513 0.4834,-0.15381 0.12695,-0.10416 0.21566,-0.25797 0.26612,-0.46142 l 0.36132,0 c -0.0716,0.28483 -0.20426,0.49886 -0.39794,0.64209 -0.19206,0.14323 -0.44516,0.21484 -0.75928,0.21484 -0.37924,0 -0.68441,-0.12451 -0.91553,-0.37353 -0.22949,-0.25065 -0.34424,-0.58268 -0.34424,-0.9961 0,-0.41015 0.11312,-0.74055 0.33936,-0.99121 0.22623,-0.25065 0.52327,-0.37597 0.89111,-0.37597 0.39225,0 0.69336,0.12125 0.90332,0.36377 0.20996,0.24088 0.31901,0.59163 0.32715,1.05224 m -0.52979,-0.25879 c -0.01,-0.30273 -0.074,-0.53059 -0.19287,-0.68359 -0.11719,-0.15462 -0.28646,-0.23193 -0.50781,-0.23194 -0.20671,1e-5 -0.36947,0.0773 -0.48828,0.23194 -0.11882,0.15462 -0.19124,0.38249 -0.21729,0.68359 l 1.40625,0"
         style="font-size:5px"
         id="path7535" />
      <path
         d="m 999.1922,-107.85142 c 0,-0.0749 0.0269,-0.13997 0.0806,-0.19531 0.0553,-0.0553 0.12125,-0.083 0.19775,-0.083 0.0749,1e-5 0.13916,0.0277 0.19287,0.083 0.0553,0.0553 0.083,0.12045 0.083,0.19531 0,0.0765 -0.0269,0.14161 -0.0806,0.19531 -0.0537,0.0537 -0.11881,0.0806 -0.19531,0.0806 -0.0765,0 -0.14242,-0.0268 -0.19775,-0.0806 -0.0537,-0.0537 -0.0806,-0.11881 -0.0806,-0.19531 m 0.57373,3.14209 0.42477,0 0,0.25879 -1.30368,0 0,-0.25879 0.42969,0 0,-2.07519 -0.42969,0 0,-0.26123 0.87891,0 0,2.33642"
         style="font-size:5px"
         id="path7537" />
      <path
         d="m 1000.513,-104.45054 0,-0.25879 0.4053,0 0,-2.07519 -0.4297,0 0,-0.26123 0.8789,0 0,0.46142 c 0.083,-0.17578 0.1904,-0.30843 0.3223,-0.39795 0.1334,-0.0895 0.288,-0.13427 0.4638,-0.13427 0.2865,0 0.4973,0.0822 0.6323,0.24658 0.1351,0.16439 0.2027,0.42074 0.2027,0.76904 l 0,1.3916 0.4004,0 0,0.25879 -1.2403,0 0,-0.25879 0.3882,0 0,-1.25 c 0,-0.31738 -0.039,-0.53466 -0.1172,-0.65185 -0.078,-0.11882 -0.2156,-0.17822 -0.4126,-0.17823 -0.2083,1e-5 -0.367,0.0765 -0.476,0.2295 -0.1091,0.15137 -0.1636,0.37272 -0.1636,0.66406 l 0,1.18652 0.3906,0 0,0.25879 -1.2451,0"
         style="font-size:5px"
         id="path7539" />
      <path
         d="m 1004.7659,-104.45054 -0.9546,-2.33398 -0.2954,0 0,-0.26123 1.1939,0 0,0.26123 -0.4151,0 0.73,1.78466 0.73,-1.78466 -0.3882,0 0,-0.26123 0.9741,0 0,0.26123 -0.2905,0 -0.9546,2.33398 -0.3296,0"
         style="font-size:5px"
         id="path7541" />
      <path
         d="m 1007.8568,-104.62144 c 0.2408,0 0.4223,-0.0952 0.5444,-0.28564 0.1237,-0.19043 0.1855,-0.47119 0.1855,-0.84229 0,-0.37109 -0.062,-0.65104 -0.1855,-0.83984 -0.1221,-0.19043 -0.3036,-0.28564 -0.5444,-0.28565 -0.2409,1e-5 -0.4232,0.0952 -0.5469,0.28565 -0.1221,0.1888 -0.1831,0.46875 -0.1831,0.83984 0,0.3711 0.062,0.65186 0.1855,0.84229 0.1237,0.19043 0.3052,0.28564 0.5445,0.28564 m 0,0.2417 c -0.3777,0 -0.6812,-0.12451 -0.9107,-0.37353 -0.2295,-0.25065 -0.3442,-0.58268 -0.3442,-0.9961 0,-0.41341 0.1139,-0.74462 0.3418,-0.99365 0.2295,-0.24902 0.5338,-0.37353 0.9131,-0.37353 0.3792,0 0.6827,0.12451 0.9106,0.37353 0.2295,0.24903 0.3442,0.58024 0.3442,0.99365 0,0.41342 -0.1147,0.74545 -0.3442,0.9961 -0.2279,0.24902 -0.5314,0.37353 -0.9106,0.37353"
         style="font-size:5px"
         id="path7543" />
      <path
         d="m 1011.9315,-105.22935 c -0.063,0.2767 -0.1856,0.48747 -0.3663,0.63233 -0.1806,0.14485 -0.4142,0.21728 -0.7006,0.21728 -0.3776,0 -0.6812,-0.12451 -0.9107,-0.37353 -0.2295,-0.25065 -0.3442,-0.58268 -0.3442,-0.9961 0,-0.41503 0.1147,-0.74625 0.3442,-0.99365 0.2295,-0.24902 0.5331,-0.37353 0.9107,-0.37353 0.1643,0 0.3279,0.0195 0.4907,0.0586 0.1627,0.0374 0.3263,0.0952 0.4907,0.17334 l 0,0.66406 -0.2612,0 c -0.034,-0.22786 -0.1091,-0.39388 -0.2246,-0.49805 -0.114,-0.10416 -0.2775,-0.15624 -0.4908,-0.15625 -0.2425,1e-5 -0.4256,0.0944 -0.5493,0.28321 -0.1237,0.18717 -0.1855,0.46794 -0.1855,0.84228 0,0.37435 0.061,0.65593 0.1831,0.84473 0.1237,0.1888 0.3076,0.2832 0.5517,0.2832 0.1937,0 0.3484,-0.0504 0.4639,-0.15136 0.1156,-0.10092 0.1945,-0.2531 0.2368,-0.45655 l 0.3614,0"
         style="font-size:5px"
         id="path7545" />
      <path
         d="m 1014.1531,-105.26597 0,-0.54931 -0.5786,0 c -0.223,0 -0.389,0.048 -0.498,0.14404 -0.1091,0.096 -0.1636,0.24333 -0.1636,0.44189 0,0.18067 0.055,0.3239 0.166,0.42969 0.1107,0.10579 0.2604,0.15869 0.4492,0.15869 0.1872,0 0.3378,-0.0578 0.4517,-0.17334 0.1156,-0.11556 0.1733,-0.26611 0.1733,-0.45166 m 0.4493,-0.80566 0,1.3623 0.4003,0 0,0.25879 -0.8496,0 0,-0.28076 c -0.099,0.12044 -0.214,0.20915 -0.3442,0.26611 -0.1302,0.057 -0.2824,0.0855 -0.4565,0.0855 -0.2881,0 -0.5168,-0.0765 -0.6861,-0.22949 -0.1693,-0.15299 -0.2539,-0.3597 -0.2539,-0.62012 0,-0.26855 0.097,-0.47688 0.2905,-0.625 0.1937,-0.14811 0.4672,-0.22216 0.8204,-0.22217 l 0.6298,0 0,-0.17822 c 0,-0.19694 -0.06,-0.34912 -0.1806,-0.45654 -0.1188,-0.10905 -0.2865,-0.16357 -0.503,-0.16358 -0.179,1e-5 -0.3214,0.0407 -0.4272,0.12208 -0.1058,0.0814 -0.1717,0.20182 -0.1978,0.36132 l -0.2319,0 0,-0.5249 c 0.1563,-0.0667 0.3076,-0.11637 0.4541,-0.14892 0.1481,-0.0342 0.2922,-0.0513 0.4321,-0.0513 0.3597,0 0.6332,0.0895 0.8204,0.26855 0.1888,0.17741 0.2832,0.4362 0.2832,0.77637"
         style="font-size:5px"
         id="path7547" />
      <path
         d="m 1015.6815,-106.78452 -0.3956,0 0,-0.26123 0.3956,0 0,-0.80567 0.4516,0 0,0.80567 0.8447,0 0,0.26123 -0.8447,0 0,1.64795 c 0,0.21972 0.021,0.36051 0.063,0.42236 0.042,0.0618 0.1204,0.0928 0.2344,0.0928 0.1172,0 0.2026,-0.0342 0.2563,-0.10254 0.054,-0.07 0.082,-0.18229 0.085,-0.33691 l 0.3393,0 c -0.013,0.236 -0.077,0.40853 -0.1928,0.51758 -0.1156,0.10905 -0.2914,0.16357 -0.5274,0.16357 -0.2588,0 -0.4419,-0.057 -0.5493,-0.1709 -0.1074,-0.11556 -0.1611,-0.31087 -0.1611,-0.58593 l 0,-1.64795"
         style="font-size:5px"
         id="path7549" />
      <path
         d="m 1017.6395,-107.85142 c 0,-0.0749 0.027,-0.13997 0.081,-0.19531 0.055,-0.0553 0.1213,-0.083 0.1978,-0.083 0.075,1e-5 0.1391,0.0277 0.1929,0.083 0.055,0.0553 0.083,0.12045 0.083,0.19531 0,0.0765 -0.027,0.14161 -0.081,0.19531 -0.054,0.0537 -0.1188,0.0806 -0.1953,0.0806 -0.077,0 -0.1424,-0.0268 -0.1978,-0.0806 -0.054,-0.0537 -0.081,-0.11881 -0.081,-0.19531 m 0.5737,3.14209 0.4248,0 0,0.25879 -1.3037,0 0,-0.25879 0.4297,0 0,-2.07519 -0.4297,0 0,-0.26123 0.8789,0 0,2.33642"
         style="font-size:5px"
         id="path7551" />
      <path
         d="m 1020.2591,-104.62144 c 0.2409,0 0.4224,-0.0952 0.5444,-0.28564 0.1237,-0.19043 0.1856,-0.47119 0.1856,-0.84229 0,-0.37109 -0.062,-0.65104 -0.1856,-0.83984 -0.122,-0.19043 -0.3035,-0.28564 -0.5444,-0.28565 -0.2409,1e-5 -0.4232,0.0952 -0.5469,0.28565 -0.1221,0.1888 -0.1831,0.46875 -0.1831,0.83984 0,0.3711 0.062,0.65186 0.1856,0.84229 0.1237,0.19043 0.3051,0.28564 0.5444,0.28564 m 0,0.2417 c -0.3776,0 -0.6812,-0.12451 -0.9107,-0.37353 -0.2294,-0.25065 -0.3442,-0.58268 -0.3442,-0.9961 0,-0.41341 0.1139,-0.74462 0.3418,-0.99365 0.2295,-0.24902 0.5339,-0.37353 0.9131,-0.37353 0.3792,0 0.6828,0.12451 0.9106,0.37353 0.2295,0.24903 0.3443,0.58024 0.3443,0.99365 0,0.41342 -0.1148,0.74545 -0.3443,0.9961 -0.2278,0.24902 -0.5314,0.37353 -0.9106,0.37353"
         style="font-size:5px"
         id="path7553" />
      <path
         d="m 1021.9681,-104.45054 0,-0.25879 0.4053,0 0,-2.07519 -0.4297,0 0,-0.26123 0.8789,0 0,0.46142 c 0.083,-0.17578 0.1904,-0.30843 0.3222,-0.39795 0.1335,-0.0895 0.2881,-0.13427 0.4639,-0.13427 0.2865,0 0.4972,0.0822 0.6323,0.24658 0.1351,0.16439 0.2027,0.42074 0.2027,0.76904 l 0,1.3916 0.4004,0 0,0.25879 -1.2403,0 0,-0.25879 0.3882,0 0,-1.25 c 0,-0.31738 -0.039,-0.53466 -0.1172,-0.65185 -0.078,-0.11882 -0.2156,-0.17822 -0.4126,-0.17823 -0.2083,1e-5 -0.367,0.0765 -0.4761,0.2295 -0.109,0.15137 -0.1635,0.37272 -0.1635,0.66406 l 0,1.18652 0.3906,0 0,0.25879 -1.2451,0"
         style="font-size:5px"
         id="path7555" />
    </g>
  </g>
</svg>
